<?xml version="1.0" encoding="utf-8"?>
<!-- Svg Vector Icons : http://www.onlinewebfonts.com/icon -->
<!DOCTYPE svg PUBLIC "-//W3C//DTD SVG 1.1//EN" "http://www.w3.org/Graphics/SVG/1.1/DTD/svg11.dtd">
<svg version="1.1" xmlns="http://www.w3.org/2000/svg" xmlns:xlink="http://www.w3.org/1999/xlink" x="0px" y="0px" viewBox="0 0 256 256" enable-background="new 0 0 256 256" xml:space="preserve">
<metadata> Svg Vector Icons : http://www.onlinewebfonts.com/icon </metadata>
<g><g><g><path fill="#000000" d="M90.9,23.1c-3.8,1.8-3.9,2.6-3.9,22v17.4H54.7c-20.9,0-33.3,0.3-34.8,0.7c-3,0.8-7.1,4.4-8.7,7.6C10.1,73,10,75.2,10,148c0,71.7,0.1,75.1,1.2,77.5c0.6,1.4,2.1,3.4,3.3,4.5c4.5,4.2-3.3,4,113.5,4s109,0.3,113.5-4c1.1-1.1,2.6-3.2,3.3-4.5c1.1-2.4,1.2-5.8,1.2-77.3c0-71-0.1-74.9-1.2-77.3c-1.5-3.2-5.6-7-8.7-7.8c-1.5-0.4-13.9-0.7-34.7-0.7H169V45c0-19.4-0.1-20.2-4-22c-1.9-0.9-6.1-1-37.1-1C97,22,92.7,22.1,90.9,23.1z M158.9,47.2v15.1H128H97.1V47.2V32.1H128h30.9V47.2z M41.6,113.5c0,33.3,0.2,41.5,0.9,43.1c1.1,2.7,4.2,5.2,7.2,6.1c3.2,0.9,153.5,0.9,156.7,0c3-0.9,6.1-3.5,7.2-6.1c0.7-1.6,0.9-9.8,0.9-43.1v-41h9.4c8.3,0,9.6,0.1,10.9,1.2l1.5,1.2v73.3v73.3l-1.5,1.2c-1.5,1.2-4,1.2-106.7,1.2s-105.3,0-106.7-1.2l-1.5-1.2v-73.3V74.9l1.5-1.2c1.3-1.1,2.5-1.2,10.9-1.2h9.4L41.6,113.5L41.6,113.5z M204.4,112.9v40.4H128H51.6v-40.4V72.5H128h76.4V112.9z"/></g></g></g>
</svg>